<mxfile host="app.diagrams.net" modified="2023-09-07T02:44:51.189Z" agent="Mozilla/5.0 (Windows NT 10.0; Win64; x64) AppleWebKit/537.36 (KHTML, like Gecko) Chrome/116.0.0.0 Safari/537.36" etag="axRT5GqLvEu61bsvrZEI" version="21.7.2" type="github">
  <diagram name="페이지-1" id="b-UZYAw1pXOODbbfBWXU">
    <mxGraphModel dx="1975" dy="-112" grid="1" gridSize="10" guides="1" tooltips="1" connect="1" arrows="1" fold="1" page="1" pageScale="1" pageWidth="827" pageHeight="1169" math="0" shadow="0">
      <root>
        <mxCell id="0" />
        <mxCell id="1" parent="0" />
        <mxCell id="Z9UkNsEjIgAB2yaQEzFp-3" value="생각을 하고 -&amp;gt; 계획을 짠다 -&amp;gt; 실행한다&lt;br&gt;&lt;br&gt;Q. 근데 내가 짠 계획끼리 인과관계가 있을려면 ?&amp;nbsp;&amp;nbsp;&lt;br&gt;&lt;p style=&quot;border-color: var(--border-color); text-align: left;&quot;&gt;ㄴ 구조화 / 구어체 / 액터 중요 / 인과관계 중요 / 스토리&lt;/p&gt;" style="rounded=0;whiteSpace=wrap;html=1;" parent="1" vertex="1">
          <mxGeometry x="1250" y="1949" width="375" height="120" as="geometry" />
        </mxCell>
        <mxCell id="bCG06Xong5YbKZuL8soF-1" value="&lt;p&gt;&lt;strong&gt;주제 : 나의 하루 계획을 유스케이스로 표현하기 (9/5일 하루)&lt;/strong&gt;&lt;/p&gt;- 나의 하루 계획은 회사에 출근 후 노트북을 켜고 메일에 계획을 적으면서 시작되는거임&amp;nbsp;&lt;br&gt;&lt;p&gt;&lt;span style=&quot;background-color: initial;&quot;&gt;※ 일정 텍스트를 보여주고 / 유스케이스를 보여주기&lt;/span&gt;&lt;br&gt;&lt;/p&gt;" style="rounded=0;whiteSpace=wrap;html=1;align=left;" parent="1" vertex="1">
          <mxGeometry x="10" y="1180" width="490" height="120" as="geometry" />
        </mxCell>
        <mxCell id="bCG06Xong5YbKZuL8soF-35" value="" style="edgeStyle=orthogonalEdgeStyle;rounded=0;orthogonalLoop=1;jettySize=auto;html=1;" parent="1" edge="1">
          <mxGeometry relative="1" as="geometry">
            <mxPoint x="1031" y="1742.5" as="sourcePoint" />
            <mxPoint x="1061" y="1743" as="targetPoint" />
          </mxGeometry>
        </mxCell>
        <mxCell id="bCG06Xong5YbKZuL8soF-15" value="오전 일정을 진행한다" style="ellipse;whiteSpace=wrap;html=1;" parent="1" vertex="1">
          <mxGeometry x="860" y="1720" width="170" height="45" as="geometry" />
        </mxCell>
        <mxCell id="bCG06Xong5YbKZuL8soF-16" value="용어 조사를 한다" style="ellipse;whiteSpace=wrap;html=1;" parent="1" vertex="1">
          <mxGeometry x="1270" y="1590" width="130" height="45" as="geometry" />
        </mxCell>
        <mxCell id="bCG06Xong5YbKZuL8soF-17" value="UML 숙제를 한다" style="ellipse;whiteSpace=wrap;html=1;" parent="1" vertex="1">
          <mxGeometry x="1140" y="1645" width="140" height="45" as="geometry" />
        </mxCell>
        <mxCell id="bCG06Xong5YbKZuL8soF-18" value="홈페이지 리뷰 회의에 &lt;br&gt;참석한다&amp;nbsp;" style="ellipse;whiteSpace=wrap;html=1;" parent="1" vertex="1">
          <mxGeometry x="705" y="1810" width="170" height="45" as="geometry" />
        </mxCell>
        <mxCell id="bCG06Xong5YbKZuL8soF-19" value="오늘 일정 중 못한 것과 내일 일정을 체크하고&lt;br&gt;일을 마무리한다.&amp;nbsp;" style="ellipse;whiteSpace=wrap;html=1;" parent="1" vertex="1">
          <mxGeometry x="1380" y="1630" width="270" height="60" as="geometry" />
        </mxCell>
        <mxCell id="bCG06Xong5YbKZuL8soF-32" value="오후 일정을 수행한다" style="ellipse;whiteSpace=wrap;html=1;" parent="1" vertex="1">
          <mxGeometry x="1280" y="1720" width="170" height="45" as="geometry" />
        </mxCell>
        <mxCell id="bCG06Xong5YbKZuL8soF-36" value="" style="edgeStyle=orthogonalEdgeStyle;rounded=0;orthogonalLoop=1;jettySize=auto;html=1;" parent="1" source="bCG06Xong5YbKZuL8soF-34" target="bCG06Xong5YbKZuL8soF-32" edge="1">
          <mxGeometry relative="1" as="geometry" />
        </mxCell>
        <mxCell id="bCG06Xong5YbKZuL8soF-34" value="11:40분이 되어 &lt;br&gt;점심 식사를&amp;nbsp; 한다" style="ellipse;whiteSpace=wrap;html=1;" parent="1" vertex="1">
          <mxGeometry x="1060" y="1719.5" width="170" height="45" as="geometry" />
        </mxCell>
        <mxCell id="bCG06Xong5YbKZuL8soF-37" value="용어 조사를 한다" style="ellipse;whiteSpace=wrap;html=1;" parent="1" vertex="1">
          <mxGeometry x="920" y="1832.5" width="140" height="45" as="geometry" />
        </mxCell>
        <mxCell id="bCG06Xong5YbKZuL8soF-38" value="검색을 한다" style="ellipse;whiteSpace=wrap;html=1;" parent="1" vertex="1">
          <mxGeometry x="930" y="1945" width="110" height="45" as="geometry" />
        </mxCell>
        <mxCell id="bCG06Xong5YbKZuL8soF-39" value="워드에 내용을 정리한다" style="ellipse;whiteSpace=wrap;html=1;" parent="1" vertex="1">
          <mxGeometry x="1020" y="1907" width="140" height="45" as="geometry" />
        </mxCell>
        <mxCell id="bCG06Xong5YbKZuL8soF-40" value="ppt 를 만든다" style="ellipse;whiteSpace=wrap;html=1;" parent="1" vertex="1">
          <mxGeometry x="810" y="1904" width="100" height="45" as="geometry" />
        </mxCell>
        <mxCell id="HdQIe0lHVReNmPLPV30v-5" value="&amp;lt;&amp;lt;extend&amp;gt;&amp;gt;" style="html=1;verticalAlign=bottom;labelBackgroundColor=none;endArrow=open;endFill=0;dashed=1;rounded=0;entryX=0;entryY=1;entryDx=0;entryDy=0;exitX=0.706;exitY=0;exitDx=0;exitDy=0;exitPerimeter=0;" parent="1" source="bCG06Xong5YbKZuL8soF-18" target="bCG06Xong5YbKZuL8soF-15" edge="1">
          <mxGeometry x="-0.187" y="-1" width="160" relative="1" as="geometry">
            <mxPoint x="890" y="1810" as="sourcePoint" />
            <mxPoint x="587" y="1797" as="targetPoint" />
            <mxPoint as="offset" />
          </mxGeometry>
        </mxCell>
        <mxCell id="HdQIe0lHVReNmPLPV30v-9" value="&amp;lt;&amp;lt;extend&amp;gt;&amp;gt;" style="html=1;verticalAlign=bottom;labelBackgroundColor=none;endArrow=open;endFill=0;dashed=1;rounded=0;exitX=0.5;exitY=0;exitDx=0;exitDy=0;entryX=0.45;entryY=1.011;entryDx=0;entryDy=0;entryPerimeter=0;" parent="1" source="bCG06Xong5YbKZuL8soF-38" target="bCG06Xong5YbKZuL8soF-37" edge="1">
          <mxGeometry x="0.0412" y="9" width="160" relative="1" as="geometry">
            <mxPoint x="990" y="1879" as="sourcePoint" />
            <mxPoint x="970" y="1900" as="targetPoint" />
            <mxPoint as="offset" />
          </mxGeometry>
        </mxCell>
        <mxCell id="HdQIe0lHVReNmPLPV30v-10" value="&amp;lt;&amp;lt;extend&amp;gt;&amp;gt;" style="html=1;verticalAlign=bottom;labelBackgroundColor=none;endArrow=open;endFill=0;dashed=1;rounded=0;entryX=1;entryY=1;entryDx=0;entryDy=0;exitX=0.457;exitY=0;exitDx=0;exitDy=0;exitPerimeter=0;" parent="1" source="bCG06Xong5YbKZuL8soF-39" target="bCG06Xong5YbKZuL8soF-37" edge="1">
          <mxGeometry x="-0.4651" y="4" width="160" relative="1" as="geometry">
            <mxPoint x="1130" y="1890" as="sourcePoint" />
            <mxPoint x="1003" y="1912.5" as="targetPoint" />
            <mxPoint y="-1" as="offset" />
          </mxGeometry>
        </mxCell>
        <mxCell id="bCG06Xong5YbKZuL8soF-28" value="" style="edgeStyle=orthogonalEdgeStyle;rounded=0;orthogonalLoop=1;jettySize=auto;html=1;" parent="1" source="bCG06Xong5YbKZuL8soF-2" target="Z9UkNsEjIgAB2yaQEzFp-6" edge="1">
          <mxGeometry relative="1" as="geometry" />
        </mxCell>
        <mxCell id="bCG06Xong5YbKZuL8soF-2" value="편지쓰기를 클릭한다" style="ellipse;whiteSpace=wrap;html=1;" parent="1" vertex="1">
          <mxGeometry x="467" y="1505" width="130" height="50" as="geometry" />
        </mxCell>
        <mxCell id="Z9UkNsEjIgAB2yaQEzFp-11" value="오늘 참석해야 할 일정이 있는지 &lt;br&gt;확인한다" style="ellipse;whiteSpace=wrap;html=1;" parent="1" vertex="1">
          <mxGeometry x="605" y="1670" width="200" height="65" as="geometry" />
        </mxCell>
        <mxCell id="bCG06Xong5YbKZuL8soF-26" value="" style="edgeStyle=orthogonalEdgeStyle;rounded=0;orthogonalLoop=1;jettySize=auto;html=1;" parent="1" source="bCG06Xong5YbKZuL8soF-6" target="bCG06Xong5YbKZuL8soF-7" edge="1">
          <mxGeometry relative="1" as="geometry" />
        </mxCell>
        <mxCell id="bCG06Xong5YbKZuL8soF-6" value="노트북을 켠다" style="ellipse;whiteSpace=wrap;html=1;" parent="1" vertex="1">
          <mxGeometry x="140" y="1495" width="90" height="70" as="geometry" />
        </mxCell>
        <mxCell id="bCG06Xong5YbKZuL8soF-27" value="" style="edgeStyle=orthogonalEdgeStyle;rounded=0;orthogonalLoop=1;jettySize=auto;html=1;" parent="1" source="bCG06Xong5YbKZuL8soF-7" target="bCG06Xong5YbKZuL8soF-2" edge="1">
          <mxGeometry relative="1" as="geometry" />
        </mxCell>
        <mxCell id="bCG06Xong5YbKZuL8soF-7" value="메신저에서&amp;nbsp;받은 편지함을 열어&lt;br&gt;새 메일이 있는 지 확인한다" style="ellipse;whiteSpace=wrap;html=1;" parent="1" vertex="1">
          <mxGeometry x="260" y="1490" width="180" height="80" as="geometry" />
        </mxCell>
        <mxCell id="Z9UkNsEjIgAB2yaQEzFp-6" value="오늘 일정 계획을 적는다" style="ellipse;whiteSpace=wrap;html=1;" parent="1" vertex="1">
          <mxGeometry x="620" y="1507.5" width="170" height="45" as="geometry" />
        </mxCell>
        <mxCell id="bCG06Xong5YbKZuL8soF-10" value="달력을 확인한다" style="ellipse;whiteSpace=wrap;html=1;" parent="1" vertex="1">
          <mxGeometry x="560" y="1595" width="130" height="45" as="geometry" />
        </mxCell>
        <mxCell id="bCG06Xong5YbKZuL8soF-11" value="회의실 예약 내역을 확인한다" style="ellipse;whiteSpace=wrap;html=1;" parent="1" vertex="1">
          <mxGeometry x="730" y="1595" width="170" height="45" as="geometry" />
        </mxCell>
        <mxCell id="Z9UkNsEjIgAB2yaQEzFp-12" value="기존에 쓰던 템플릿을 복사 후&lt;br&gt;세부 내용을 수정한다" style="ellipse;whiteSpace=wrap;html=1;" parent="1" vertex="1">
          <mxGeometry x="350" y="1640" width="200" height="65" as="geometry" />
        </mxCell>
        <mxCell id="HdQIe0lHVReNmPLPV30v-2" value="&amp;lt;&amp;lt;extend&amp;gt;&amp;gt;" style="html=1;verticalAlign=bottom;labelBackgroundColor=none;endArrow=open;endFill=0;dashed=1;rounded=0;exitX=0.5;exitY=0;exitDx=0;exitDy=0;entryX=0.2;entryY=0.989;entryDx=0;entryDy=0;entryPerimeter=0;" parent="1" source="bCG06Xong5YbKZuL8soF-10" target="Z9UkNsEjIgAB2yaQEzFp-6" edge="1">
          <mxGeometry width="160" relative="1" as="geometry">
            <mxPoint x="690" y="1570" as="sourcePoint" />
            <mxPoint x="630" y="1560" as="targetPoint" />
          </mxGeometry>
        </mxCell>
        <mxCell id="HdQIe0lHVReNmPLPV30v-3" value="&amp;lt;&amp;lt;extend&amp;gt;&amp;gt;" style="html=1;verticalAlign=bottom;labelBackgroundColor=none;endArrow=open;endFill=0;dashed=1;rounded=0;exitX=0.625;exitY=0;exitDx=0;exitDy=0;exitPerimeter=0;entryX=0.035;entryY=0.811;entryDx=0;entryDy=0;entryPerimeter=0;" parent="1" source="Z9UkNsEjIgAB2yaQEzFp-12" target="Z9UkNsEjIgAB2yaQEzFp-6" edge="1">
          <mxGeometry x="0.0412" y="9" width="160" relative="1" as="geometry">
            <mxPoint x="630" y="1540" as="sourcePoint" />
            <mxPoint x="450" y="1580" as="targetPoint" />
            <mxPoint as="offset" />
          </mxGeometry>
        </mxCell>
        <mxCell id="HdQIe0lHVReNmPLPV30v-1" value="&amp;lt;&amp;lt;extend&amp;gt;&amp;gt;" style="html=1;verticalAlign=bottom;labelBackgroundColor=none;endArrow=open;endFill=0;dashed=1;rounded=0;entryX=1;entryY=1;entryDx=0;entryDy=0;exitX=0.424;exitY=-0.044;exitDx=0;exitDy=0;exitPerimeter=0;" parent="1" source="bCG06Xong5YbKZuL8soF-11" target="Z9UkNsEjIgAB2yaQEzFp-6" edge="1">
          <mxGeometry width="160" relative="1" as="geometry">
            <mxPoint x="810" y="1610" as="sourcePoint" />
            <mxPoint x="890" y="1551.5" as="targetPoint" />
          </mxGeometry>
        </mxCell>
        <mxCell id="HdQIe0lHVReNmPLPV30v-4" value="&amp;lt;&amp;lt;extend&amp;gt;&amp;gt;" style="html=1;verticalAlign=bottom;labelBackgroundColor=none;endArrow=open;endFill=0;dashed=1;rounded=0;entryX=0.5;entryY=1;entryDx=0;entryDy=0;exitX=0.5;exitY=0;exitDx=0;exitDy=0;" parent="1" source="Z9UkNsEjIgAB2yaQEzFp-11" target="Z9UkNsEjIgAB2yaQEzFp-6" edge="1">
          <mxGeometry x="-0.6596" y="5" width="160" relative="1" as="geometry">
            <mxPoint x="860" y="1680" as="sourcePoint" />
            <mxPoint x="580" y="1650" as="targetPoint" />
            <mxPoint as="offset" />
          </mxGeometry>
        </mxCell>
        <mxCell id="Z9UkNsEjIgAB2yaQEzFp-9" value="메일을 보낸다" style="ellipse;whiteSpace=wrap;html=1;" parent="1" vertex="1">
          <mxGeometry x="870" y="1507.5" width="120" height="45" as="geometry" />
        </mxCell>
        <mxCell id="bCG06Xong5YbKZuL8soF-29" value="" style="edgeStyle=orthogonalEdgeStyle;rounded=0;orthogonalLoop=1;jettySize=auto;html=1;" parent="1" source="Z9UkNsEjIgAB2yaQEzFp-6" target="Z9UkNsEjIgAB2yaQEzFp-9" edge="1">
          <mxGeometry relative="1" as="geometry" />
        </mxCell>
        <mxCell id="HdQIe0lHVReNmPLPV30v-28" value="" style="edgeStyle=orthogonalEdgeStyle;rounded=0;orthogonalLoop=1;jettySize=auto;html=1;" parent="1" source="HdQIe0lHVReNmPLPV30v-14" target="bCG06Xong5YbKZuL8soF-6" edge="1">
          <mxGeometry relative="1" as="geometry" />
        </mxCell>
        <mxCell id="HdQIe0lHVReNmPLPV30v-14" value="혜진" style="shape=umlActor;verticalLabelPosition=bottom;verticalAlign=top;html=1;outlineConnect=0;" parent="1" vertex="1">
          <mxGeometry x="10" y="1480" width="50" height="100" as="geometry" />
        </mxCell>
        <mxCell id="HdQIe0lHVReNmPLPV30v-15" value="&amp;lt;&amp;lt;extend&amp;gt;&amp;gt;" style="html=1;verticalAlign=bottom;labelBackgroundColor=none;endArrow=open;endFill=0;dashed=1;rounded=0;entryX=0.043;entryY=0.767;entryDx=0;entryDy=0;entryPerimeter=0;exitX=0.59;exitY=0.044;exitDx=0;exitDy=0;exitPerimeter=0;" parent="1" source="bCG06Xong5YbKZuL8soF-40" target="bCG06Xong5YbKZuL8soF-37" edge="1">
          <mxGeometry x="0.0052" y="-3" width="160" relative="1" as="geometry">
            <mxPoint x="930" y="1900" as="sourcePoint" />
            <mxPoint x="880" y="1930" as="targetPoint" />
            <mxPoint as="offset" />
          </mxGeometry>
        </mxCell>
        <mxCell id="HdQIe0lHVReNmPLPV30v-17" value="&amp;lt;&amp;lt;extend&amp;gt;&amp;gt;" style="html=1;verticalAlign=bottom;labelBackgroundColor=none;endArrow=open;endFill=0;dashed=1;rounded=0;entryX=0.5;entryY=1;entryDx=0;entryDy=0;" parent="1" target="bCG06Xong5YbKZuL8soF-15" edge="1">
          <mxGeometry x="-0.0164" y="2" width="160" relative="1" as="geometry">
            <mxPoint x="980" y="1830" as="sourcePoint" />
            <mxPoint x="900" y="1802" as="targetPoint" />
            <mxPoint as="offset" />
          </mxGeometry>
        </mxCell>
        <mxCell id="HdQIe0lHVReNmPLPV30v-18" value="" style="endArrow=classic;html=1;rounded=0;entryX=0.418;entryY=0.033;entryDx=0;entryDy=0;entryPerimeter=0;exitX=0.5;exitY=1;exitDx=0;exitDy=0;" parent="1" source="Z9UkNsEjIgAB2yaQEzFp-9" target="bCG06Xong5YbKZuL8soF-15" edge="1">
          <mxGeometry width="50" height="50" relative="1" as="geometry">
            <mxPoint x="950" y="1580" as="sourcePoint" />
            <mxPoint x="1000" y="1530" as="targetPoint" />
          </mxGeometry>
        </mxCell>
        <mxCell id="HdQIe0lHVReNmPLPV30v-20" value="&amp;lt;&amp;lt;extend&amp;gt;&amp;gt;" style="html=1;verticalAlign=bottom;labelBackgroundColor=none;endArrow=open;endFill=0;dashed=1;rounded=0;exitX=0.653;exitY=0.978;exitDx=0;exitDy=0;exitPerimeter=0;entryX=0;entryY=0;entryDx=0;entryDy=0;" parent="1" source="bCG06Xong5YbKZuL8soF-17" target="bCG06Xong5YbKZuL8soF-32" edge="1">
          <mxGeometry x="0.1638" y="1" width="160" relative="1" as="geometry">
            <mxPoint x="1312" y="1660.5" as="sourcePoint" />
            <mxPoint x="1320" y="1710" as="targetPoint" />
            <mxPoint as="offset" />
          </mxGeometry>
        </mxCell>
        <mxCell id="HdQIe0lHVReNmPLPV30v-22" value="&amp;lt;&amp;lt;extend&amp;gt;&amp;gt;" style="html=1;verticalAlign=bottom;labelBackgroundColor=none;endArrow=open;endFill=0;dashed=1;rounded=0;exitX=0.653;exitY=0.978;exitDx=0;exitDy=0;exitPerimeter=0;entryX=0.435;entryY=0.011;entryDx=0;entryDy=0;entryPerimeter=0;" parent="1" target="bCG06Xong5YbKZuL8soF-32" edge="1">
          <mxGeometry x="-0.2518" y="-1" width="160" relative="1" as="geometry">
            <mxPoint x="1328" y="1640" as="sourcePoint" />
            <mxPoint x="1358" y="1740" as="targetPoint" />
            <mxPoint as="offset" />
          </mxGeometry>
        </mxCell>
        <mxCell id="HdQIe0lHVReNmPLPV30v-24" value="&amp;lt;&amp;lt;extend&amp;gt;&amp;gt;" style="html=1;verticalAlign=bottom;labelBackgroundColor=none;endArrow=open;endFill=0;dashed=1;rounded=0;exitX=0.435;exitY=0.983;exitDx=0;exitDy=0;exitPerimeter=0;entryX=1;entryY=0.5;entryDx=0;entryDy=0;" parent="1" source="bCG06Xong5YbKZuL8soF-19" target="bCG06Xong5YbKZuL8soF-32" edge="1">
          <mxGeometry x="0.0359" y="7" width="160" relative="1" as="geometry">
            <mxPoint x="1474" y="1720" as="sourcePoint" />
            <mxPoint x="1470" y="1800" as="targetPoint" />
            <mxPoint as="offset" />
          </mxGeometry>
        </mxCell>
        <mxCell id="bwf8DCTzNN-fOtZaEhQm-1" value="" style="edgeStyle=orthogonalEdgeStyle;rounded=0;orthogonalLoop=1;jettySize=auto;html=1;" edge="1" parent="1">
          <mxGeometry relative="1" as="geometry">
            <mxPoint x="1081.82" y="2350.39" as="sourcePoint" />
            <mxPoint x="1111.82" y="2350.89" as="targetPoint" />
          </mxGeometry>
        </mxCell>
        <mxCell id="bwf8DCTzNN-fOtZaEhQm-2" value="오전 일정을 진행한다" style="ellipse;whiteSpace=wrap;html=1;" vertex="1" parent="1">
          <mxGeometry x="910.82" y="2327.89" width="170" height="45" as="geometry" />
        </mxCell>
        <mxCell id="bwf8DCTzNN-fOtZaEhQm-3" value="용어 조사를 한다" style="ellipse;whiteSpace=wrap;html=1;" vertex="1" parent="1">
          <mxGeometry x="1250" y="2190" width="130" height="45" as="geometry" />
        </mxCell>
        <mxCell id="bwf8DCTzNN-fOtZaEhQm-4" value="UML 숙제를 한다" style="ellipse;whiteSpace=wrap;html=1;" vertex="1" parent="1">
          <mxGeometry x="1090" y="2255" width="140" height="45" as="geometry" />
        </mxCell>
        <mxCell id="bwf8DCTzNN-fOtZaEhQm-5" value="홈페이지 리뷰 회의에 &lt;br&gt;참석한다&amp;nbsp;&lt;br&gt;&lt;br&gt;나는 참석만 하고 다른 일은 안하는데 그럼 일정을 진행한다라는 유스케이스의 확장으로써 쓰면 안되는걸까 ?&amp;nbsp;" style="ellipse;whiteSpace=wrap;html=1;fillColor=#fff2cc;strokeColor=#d6b656;" vertex="1" parent="1">
          <mxGeometry x="634.18" y="2390" width="295.82" height="120" as="geometry" />
        </mxCell>
        <mxCell id="bwf8DCTzNN-fOtZaEhQm-6" value="오늘 일정 중 못한 것과 내일 일정을 체크하고&lt;br&gt;일을 마무리한다.&amp;nbsp;" style="ellipse;whiteSpace=wrap;html=1;" vertex="1" parent="1">
          <mxGeometry x="1360" y="2240" width="270" height="60" as="geometry" />
        </mxCell>
        <mxCell id="bwf8DCTzNN-fOtZaEhQm-7" value="오후 일정을 수행한다" style="ellipse;whiteSpace=wrap;html=1;" vertex="1" parent="1">
          <mxGeometry x="1230" y="2330" width="170" height="45" as="geometry" />
        </mxCell>
        <mxCell id="bwf8DCTzNN-fOtZaEhQm-10" value="조사중이던 OS 용어 조사를 한다" style="ellipse;whiteSpace=wrap;html=1;" vertex="1" parent="1">
          <mxGeometry x="940.82" y="2438" width="199.18" height="45" as="geometry" />
        </mxCell>
        <mxCell id="bwf8DCTzNN-fOtZaEhQm-11" value="2010년 이전까지의 MS 외의 OS와 &lt;br&gt;2010년 이후 컴퓨터 OS에 대한 인터넷검색을 한다" style="ellipse;whiteSpace=wrap;html=1;" vertex="1" parent="1">
          <mxGeometry x="885.41" y="2520" width="310" height="45" as="geometry" />
        </mxCell>
        <mxCell id="bwf8DCTzNN-fOtZaEhQm-12" value="워드에 조사한 내용을 정리한다" style="ellipse;whiteSpace=wrap;html=1;" vertex="1" parent="1">
          <mxGeometry x="1220" y="2520" width="210" height="45" as="geometry" />
        </mxCell>
        <mxCell id="bwf8DCTzNN-fOtZaEhQm-13" value="조사한 내용을 바탕으로 ppt 를 만든다" style="ellipse;whiteSpace=wrap;html=1;" vertex="1" parent="1">
          <mxGeometry x="1070" y="2631" width="280" height="45" as="geometry" />
        </mxCell>
        <mxCell id="bwf8DCTzNN-fOtZaEhQm-14" value="&amp;lt;&amp;lt;extend&amp;gt;&amp;gt;" style="html=1;verticalAlign=bottom;labelBackgroundColor=none;endArrow=open;endFill=0;dashed=1;rounded=0;entryX=0;entryY=1;entryDx=0;entryDy=0;exitX=0.706;exitY=0;exitDx=0;exitDy=0;exitPerimeter=0;" edge="1" parent="1" source="bwf8DCTzNN-fOtZaEhQm-5" target="bwf8DCTzNN-fOtZaEhQm-2">
          <mxGeometry x="-0.187" y="-1" width="160" relative="1" as="geometry">
            <mxPoint x="940.82" y="2417.89" as="sourcePoint" />
            <mxPoint x="637.82" y="2404.89" as="targetPoint" />
            <mxPoint as="offset" />
          </mxGeometry>
        </mxCell>
        <mxCell id="bwf8DCTzNN-fOtZaEhQm-18" value="편지쓰기를 클릭한다" style="ellipse;whiteSpace=wrap;html=1;" vertex="1" parent="1">
          <mxGeometry x="447" y="2190" width="130" height="50" as="geometry" />
        </mxCell>
        <mxCell id="bwf8DCTzNN-fOtZaEhQm-19" value="오늘 참석해야 할 일정이 있는지 &lt;br&gt;회의실 예약 내역을 확인한다" style="ellipse;whiteSpace=wrap;html=1;" vertex="1" parent="1">
          <mxGeometry x="295" y="2492.5" width="200" height="65" as="geometry" />
        </mxCell>
        <mxCell id="bwf8DCTzNN-fOtZaEhQm-20" value="" style="edgeStyle=orthogonalEdgeStyle;rounded=0;orthogonalLoop=1;jettySize=auto;html=1;" edge="1" parent="1">
          <mxGeometry relative="1" as="geometry">
            <mxPoint x="210" y="2215" as="sourcePoint" />
            <mxPoint x="240" y="2215" as="targetPoint" />
          </mxGeometry>
        </mxCell>
        <mxCell id="bwf8DCTzNN-fOtZaEhQm-21" value="노트북을 켠다" style="ellipse;whiteSpace=wrap;html=1;" vertex="1" parent="1">
          <mxGeometry x="130" y="2180" width="90" height="70" as="geometry" />
        </mxCell>
        <mxCell id="bwf8DCTzNN-fOtZaEhQm-22" value="" style="edgeStyle=orthogonalEdgeStyle;rounded=0;orthogonalLoop=1;jettySize=auto;html=1;" edge="1" parent="1" target="bwf8DCTzNN-fOtZaEhQm-18">
          <mxGeometry relative="1" as="geometry">
            <mxPoint x="420" y="2215" as="sourcePoint" />
          </mxGeometry>
        </mxCell>
        <mxCell id="bwf8DCTzNN-fOtZaEhQm-23" value="메신저에서&amp;nbsp;받은 편지함을 열어&lt;br&gt;새 메일이 있는 지 확인한다" style="ellipse;whiteSpace=wrap;html=1;" vertex="1" parent="1">
          <mxGeometry x="240" y="2175" width="180" height="80" as="geometry" />
        </mxCell>
        <mxCell id="bwf8DCTzNN-fOtZaEhQm-24" value="오늘 일정 계획을 수립한다" style="ellipse;whiteSpace=wrap;html=1;" vertex="1" parent="1">
          <mxGeometry x="280" y="2330" width="170" height="45" as="geometry" />
        </mxCell>
        <mxCell id="bwf8DCTzNN-fOtZaEhQm-25" value="달력을 확인한다" style="ellipse;whiteSpace=wrap;html=1;" vertex="1" parent="1">
          <mxGeometry x="250" y="2417.5" width="130" height="45" as="geometry" />
        </mxCell>
        <mxCell id="bwf8DCTzNN-fOtZaEhQm-26" value="" style="ellipse;whiteSpace=wrap;html=1;" vertex="1" parent="1">
          <mxGeometry x="420" y="2417.5" width="170" height="45" as="geometry" />
        </mxCell>
        <mxCell id="bwf8DCTzNN-fOtZaEhQm-27" value="어제 조사했던 용어 조사가 어디까지 진행됐는지 확인한다" style="ellipse;whiteSpace=wrap;html=1;" vertex="1" parent="1">
          <mxGeometry x="40" y="2462.5" width="200" height="65" as="geometry" />
        </mxCell>
        <mxCell id="bwf8DCTzNN-fOtZaEhQm-28" value="&amp;lt;&amp;lt;extend&amp;gt;&amp;gt;" style="html=1;verticalAlign=bottom;labelBackgroundColor=none;endArrow=open;endFill=0;dashed=1;rounded=0;exitX=0.5;exitY=0;exitDx=0;exitDy=0;entryX=0.2;entryY=0.989;entryDx=0;entryDy=0;entryPerimeter=0;" edge="1" parent="1" source="bwf8DCTzNN-fOtZaEhQm-25" target="bwf8DCTzNN-fOtZaEhQm-24">
          <mxGeometry width="160" relative="1" as="geometry">
            <mxPoint x="380" y="2392.5" as="sourcePoint" />
            <mxPoint x="320" y="2382.5" as="targetPoint" />
          </mxGeometry>
        </mxCell>
        <mxCell id="bwf8DCTzNN-fOtZaEhQm-29" value="&amp;lt;&amp;lt;extend&amp;gt;&amp;gt;" style="html=1;verticalAlign=bottom;labelBackgroundColor=none;endArrow=open;endFill=0;dashed=1;rounded=0;exitX=0.625;exitY=0;exitDx=0;exitDy=0;exitPerimeter=0;entryX=0.035;entryY=0.811;entryDx=0;entryDy=0;entryPerimeter=0;" edge="1" parent="1" source="bwf8DCTzNN-fOtZaEhQm-27" target="bwf8DCTzNN-fOtZaEhQm-24">
          <mxGeometry x="0.0412" y="9" width="160" relative="1" as="geometry">
            <mxPoint x="320" y="2362.5" as="sourcePoint" />
            <mxPoint x="140" y="2402.5" as="targetPoint" />
            <mxPoint as="offset" />
          </mxGeometry>
        </mxCell>
        <mxCell id="bwf8DCTzNN-fOtZaEhQm-30" value="&amp;lt;&amp;lt;extend&amp;gt;&amp;gt;" style="html=1;verticalAlign=bottom;labelBackgroundColor=none;endArrow=open;endFill=0;dashed=1;rounded=0;entryX=1;entryY=1;entryDx=0;entryDy=0;exitX=0.424;exitY=-0.044;exitDx=0;exitDy=0;exitPerimeter=0;" edge="1" parent="1" source="bwf8DCTzNN-fOtZaEhQm-26" target="bwf8DCTzNN-fOtZaEhQm-24">
          <mxGeometry width="160" relative="1" as="geometry">
            <mxPoint x="500" y="2432.5" as="sourcePoint" />
            <mxPoint x="580" y="2374" as="targetPoint" />
          </mxGeometry>
        </mxCell>
        <mxCell id="bwf8DCTzNN-fOtZaEhQm-31" value="&amp;lt;&amp;lt;extend&amp;gt;&amp;gt;" style="html=1;verticalAlign=bottom;labelBackgroundColor=none;endArrow=open;endFill=0;dashed=1;rounded=0;entryX=0.5;entryY=1;entryDx=0;entryDy=0;exitX=0.5;exitY=0;exitDx=0;exitDy=0;" edge="1" parent="1" source="bwf8DCTzNN-fOtZaEhQm-19" target="bwf8DCTzNN-fOtZaEhQm-24">
          <mxGeometry x="-0.6596" y="5" width="160" relative="1" as="geometry">
            <mxPoint x="550" y="2502.5" as="sourcePoint" />
            <mxPoint x="270" y="2472.5" as="targetPoint" />
            <mxPoint as="offset" />
          </mxGeometry>
        </mxCell>
        <mxCell id="bwf8DCTzNN-fOtZaEhQm-33" value="" style="edgeStyle=orthogonalEdgeStyle;rounded=0;orthogonalLoop=1;jettySize=auto;html=1;" edge="1" parent="1" source="bwf8DCTzNN-fOtZaEhQm-24">
          <mxGeometry relative="1" as="geometry">
            <mxPoint x="560" y="2352.5" as="targetPoint" />
          </mxGeometry>
        </mxCell>
        <mxCell id="bwf8DCTzNN-fOtZaEhQm-35" value="혜진" style="shape=umlActor;verticalLabelPosition=bottom;verticalAlign=top;html=1;outlineConnect=0;" vertex="1" parent="1">
          <mxGeometry y="2338" width="50" height="100" as="geometry" />
        </mxCell>
        <mxCell id="bwf8DCTzNN-fOtZaEhQm-37" value="&amp;lt;&amp;lt;extend&amp;gt;&amp;gt;" style="html=1;verticalAlign=bottom;labelBackgroundColor=none;endArrow=open;endFill=0;dashed=1;rounded=0;entryX=0.5;entryY=1;entryDx=0;entryDy=0;" edge="1" parent="1" target="bwf8DCTzNN-fOtZaEhQm-2">
          <mxGeometry x="-0.0164" y="2" width="160" relative="1" as="geometry">
            <mxPoint x="1000" y="2438" as="sourcePoint" />
            <mxPoint x="950.82" y="2409.89" as="targetPoint" />
            <mxPoint as="offset" />
          </mxGeometry>
        </mxCell>
        <mxCell id="bwf8DCTzNN-fOtZaEhQm-39" value="&amp;lt;&amp;lt;extend&amp;gt;&amp;gt;" style="html=1;verticalAlign=bottom;labelBackgroundColor=none;endArrow=open;endFill=0;dashed=1;rounded=0;entryX=0;entryY=0;entryDx=0;entryDy=0;" edge="1" parent="1">
          <mxGeometry x="0.1149" y="-1" width="160" relative="1" as="geometry">
            <mxPoint x="1190" y="2300" as="sourcePoint" />
            <mxPoint x="1256.9989036140803" y="2334.672188574425" as="targetPoint" />
            <mxPoint as="offset" />
          </mxGeometry>
        </mxCell>
        <mxCell id="bwf8DCTzNN-fOtZaEhQm-40" value="&amp;lt;&amp;lt;extend&amp;gt;&amp;gt;" style="html=1;verticalAlign=bottom;labelBackgroundColor=none;endArrow=open;endFill=0;dashed=1;rounded=0;exitX=0.408;exitY=1.039;exitDx=0;exitDy=0;exitPerimeter=0;entryX=0.435;entryY=0.011;entryDx=0;entryDy=0;entryPerimeter=0;" edge="1" parent="1" target="bwf8DCTzNN-fOtZaEhQm-7" source="bwf8DCTzNN-fOtZaEhQm-3">
          <mxGeometry x="-0.2518" y="-1" width="160" relative="1" as="geometry">
            <mxPoint x="1278" y="2250" as="sourcePoint" />
            <mxPoint x="1308" y="2350" as="targetPoint" />
            <mxPoint as="offset" />
          </mxGeometry>
        </mxCell>
        <mxCell id="bwf8DCTzNN-fOtZaEhQm-41" value="&amp;lt;&amp;lt;extend&amp;gt;&amp;gt;" style="html=1;verticalAlign=bottom;labelBackgroundColor=none;endArrow=open;endFill=0;dashed=1;rounded=0;exitX=0.435;exitY=0.983;exitDx=0;exitDy=0;exitPerimeter=0;entryX=1;entryY=0.5;entryDx=0;entryDy=0;" edge="1" parent="1" source="bwf8DCTzNN-fOtZaEhQm-6" target="bwf8DCTzNN-fOtZaEhQm-7">
          <mxGeometry x="0.0359" y="7" width="160" relative="1" as="geometry">
            <mxPoint x="1424" y="2330" as="sourcePoint" />
            <mxPoint x="1420" y="2410" as="targetPoint" />
            <mxPoint as="offset" />
          </mxGeometry>
        </mxCell>
        <mxCell id="bwf8DCTzNN-fOtZaEhQm-43" value="오전에 진행해야 할 일정?&lt;br&gt;우선순위 일정?을 확인한다&amp;nbsp;" style="ellipse;whiteSpace=wrap;html=1;" vertex="1" parent="1">
          <mxGeometry x="570" y="2330" width="205" height="45" as="geometry" />
        </mxCell>
        <mxCell id="bwf8DCTzNN-fOtZaEhQm-44" value="추가해야할 내용이 있는지 확인한다" style="ellipse;whiteSpace=wrap;html=1;" vertex="1" parent="1">
          <mxGeometry x="1400" y="2631" width="280" height="45" as="geometry" />
        </mxCell>
      </root>
    </mxGraphModel>
  </diagram>
</mxfile>
